<?xml version="1.0" encoding="UTF-8"?>
<!DOCTYPE svg PUBLIC "-//W3C//DTD SVG 1.1//EN" "http://www.w3.org/Graphics/SVG/1.1/DTD/svg11.dtd">
<svg xmlns="http://www.w3.org/2000/svg" version="1.1" width="224px" height="42px" style="shape-rendering:geometricPrecision; text-rendering:geometricPrecision; image-rendering:optimizeQuality; fill-rule:evenodd; clip-rule:evenodd" xmlns:xlink="http://www.w3.org/1999/xlink">
<g><path style="opacity:1" fill="#0d557a" d="M 3.5,-0.5 C 11.1667,-0.5 18.8333,-0.5 26.5,-0.5C 26.5,2.5 26.5,5.5 26.5,8.5C 22.9186,9.25992 19.2519,9.75992 15.5,10C 15,10.5 14.5,11 14,11.5C 13.7599,15.2519 13.2599,18.9186 12.5,22.5C 9.5,22.5 6.5,22.5 3.5,22.5C 3.5,14.8333 3.5,7.16667 3.5,-0.5 Z"/></g>
<g><path style="opacity:0.004" fill="#fefffe" d="M 84.5,0.5 C 85.8333,1.16667 85.8333,1.16667 84.5,0.5 Z"/></g>
<g><path style="opacity:0.004" fill="#fefffe" d="M 171.5,0.5 C 172.833,1.16667 172.833,1.16667 171.5,0.5 Z"/></g>
<g><path style="opacity:0.004" fill="#fefffe" d="M 183.5,0.5 C 184.833,1.16667 184.833,1.16667 183.5,0.5 Z"/></g>
<g><path style="opacity:0.004" fill="#fefffe" d="M 223.5,0.5 C 223.5,0.833333 223.5,1.16667 223.5,1.5C 222.83,1.01865 222.83,0.68532 223.5,0.5 Z"/></g>
<g><path style="opacity:0.004" fill="#fefffe" d="M 157.5,1.5 C 158.833,2.16667 158.833,2.16667 157.5,1.5 Z"/></g>
<g><path style="opacity:0.004" fill="#fefffe" d="M 119.5,2.5 C 120.833,3.16667 120.833,3.16667 119.5,2.5 Z"/></g>
<g><path style="opacity:0.004" fill="#fefffe" d="M 221.5,2.5 C 222.833,3.16667 222.833,3.16667 221.5,2.5 Z"/></g>
<g><path style="opacity:0.004" fill="#fefffe" d="M 36.5,3.5 C 37.8333,4.16667 37.8333,4.16667 36.5,3.5 Z"/></g>
<g><path style="opacity:0.004" fill="#fefffe" d="M 138.5,3.5 C 139.833,4.16667 139.833,4.16667 138.5,3.5 Z"/></g>
<g><path style="opacity:0.004" fill="#00fffe" d="M 198.5,3.5 C 199.833,4.16667 199.833,4.16667 198.5,3.5 Z"/></g>
<g><path style="opacity:0.004" fill="#fefffe" d="M 103.5,4.5 C 104.833,5.16667 104.833,5.16667 103.5,4.5 Z"/></g>
<g><path style="opacity:0.004" fill="#fefffe" d="M 175.5,4.5 C 176.833,5.16667 176.833,5.16667 175.5,4.5 Z"/></g>
<g><path style="opacity:0.004" fill="#fefffe" d="M 47.5,5.5 C 48.8333,6.16667 48.8333,6.16667 47.5,5.5 Z"/></g>
<g><path style="opacity:0.004" fill="#fefffe" d="M 212.5,5.5 C 213.833,6.16667 213.833,6.16667 212.5,5.5 Z"/></g>
<g><path style="opacity:0.004" fill="#fefffe" d="M 218.5,5.5 C 219.833,6.16667 219.833,6.16667 218.5,5.5 Z"/></g>
<g><path style="opacity:0.004" fill="#fefffe" d="M 138.5,6.5 C 139.833,7.16667 139.833,7.16667 138.5,6.5 Z"/></g>
<g><path style="opacity:0.004" fill="#fefffe" d="M 216.5,6.5 C 217.833,7.16667 217.833,7.16667 216.5,6.5 Z"/></g>
<g><path style="opacity:0.004" fill="#fefffe" d="M 80.5,8.5 C 81.8333,9.16667 81.8333,9.16667 80.5,8.5 Z"/></g>
<g><path style="opacity:0.004" fill="#00fffe" d="M 173.5,8.5 C 174.833,9.16667 174.833,9.16667 173.5,8.5 Z"/></g>
<g><path style="opacity:0.004" fill="#fefffe" d="M 186.5,9.5 C 187.833,10.1667 187.833,10.1667 186.5,9.5 Z"/></g>
<g><path style="opacity:0.004" fill="#fdfffe" d="M 223.5,9.5 C 223.5,9.83333 223.5,10.1667 223.5,10.5C 222.83,10.0187 222.83,9.68532 223.5,9.5 Z"/></g>
<g><path style="opacity:0.004" fill="#fefffe" d="M 106.5,10.5 C 107.833,11.1667 107.833,11.1667 106.5,10.5 Z"/></g>
<g><path style="opacity:0.004" fill="#fefffe" d="M 142.5,10.5 C 143.833,11.1667 143.833,11.1667 142.5,10.5 Z"/></g>
<g><path style="opacity:0.004" fill="#fefffe" d="M 205.5,10.5 C 206.833,11.1667 206.833,11.1667 205.5,10.5 Z"/></g>
<g><path style="opacity:0.004" fill="#fefffe" d="M 211.5,10.5 C 212.833,11.1667 212.833,11.1667 211.5,10.5 Z"/></g>
<g><path style="opacity:1" fill="#3b9dcd" d="M 26.5,8.5 C 29.8131,9.04482 33.1464,9.54482 36.5,10C 37.3802,11.3561 37.7135,12.8561 37.5,14.5C 36.5489,15.9187 36.2155,17.5853 36.5,19.5C 33.4299,19.3677 30.4299,19.701 27.5,20.5C 25.9983,18.1371 26.3316,15.9705 28.5,14C 26.8078,12.5993 26.1412,10.7659 26.5,8.5 Z"/></g>
<g><path style="opacity:0.004" fill="#fefffe" d="M 80.5,11.5 C 81.8333,12.1667 81.8333,12.1667 80.5,11.5 Z"/></g>
<g><path style="opacity:0.004" fill="#fefffe" d="M 95.5,11.5 C 96.8333,12.1667 96.8333,12.1667 95.5,11.5 Z"/></g>
<g><path style="opacity:0.004" fill="#fdfffe" d="M 152.5,11.5 C 153.833,12.1667 153.833,12.1667 152.5,11.5 Z"/></g>
<g><path style="opacity:0.004" fill="#fefffe" d="M 129.5,12.5 C 130.833,13.1667 130.833,13.1667 129.5,12.5 Z"/></g>
<g><path style="opacity:0.004" fill="#fefffe" d="M 216.5,12.5 C 217.833,13.1667 217.833,13.1667 216.5,12.5 Z"/></g>
<g><path style="opacity:0.658" fill="#020202" d="M 69.5,22.5 C 71.2951,28.8693 68.7951,31.8693 62,31.5C 60.2358,31.4555 58.5691,31.1222 57,30.5C 56.1944,24.9162 56.3611,19.4162 57.5,14C 60.8936,13.2483 64.227,13.4149 67.5,14.5C 70.1003,17.041 70.1003,19.541 67.5,22C 68.0944,22.4643 68.7611,22.631 69.5,22.5 Z M 60.5,16.5 C 62.1667,16.5 63.8333,16.5 65.5,16.5C 65.5,17.8333 65.5,19.1667 65.5,20.5C 63.4727,20.6621 61.4727,20.4955 59.5,20C 60.3366,18.9887 60.67,17.8221 60.5,16.5 Z M 60.5,23.5 C 62.1992,23.3398 63.8659,23.5065 65.5,24C 66.5171,25.0495 66.6838,26.2161 66,27.5C 63.9361,28.5914 61.7695,28.7581 59.5,28C 60.3802,26.6439 60.7135,25.1439 60.5,23.5 Z"/></g>
<g><path style="opacity:0.76" fill="#080808" d="M 73.5,16.5 C 76.938,13.6067 80.938,12.7734 85.5,14C 86.7836,15.2975 86.6169,16.4642 85,17.5C 77.3768,14.7857 74.3768,17.4523 76,25.5C 76.3742,26.4162 76.8742,27.2496 77.5,28C 79.5213,28.1402 81.3547,28.3068 83,28.5C 83.4955,26.5273 83.6621,24.5273 83.5,22.5C 84.5,22.5 85.5,22.5 86.5,22.5C 86.5,25.5 86.5,28.5 86.5,31.5C 74.6097,32.9468 70.2764,27.9468 73.5,16.5 Z"/></g>
<g><path style="opacity:0.004" fill="#fefffe" d="M 109.5,13.5 C 110.833,14.1667 110.833,14.1667 109.5,13.5 Z"/></g>
<g><path style="opacity:0.004" fill="#fefffe" d="M 145.5,13.5 C 146.833,14.1667 146.833,14.1667 145.5,13.5 Z"/></g>
<g><path style="opacity:0.004" fill="#fefffe" d="M 113.5,14.5 C 114.833,15.1667 114.833,15.1667 113.5,14.5 Z"/></g>
<g><path style="opacity:0.004" fill="#fefffe" d="M 170.5,14.5 C 171.833,15.1667 171.833,15.1667 170.5,14.5 Z"/></g>
<g><path style="opacity:0.004" fill="#fefffe" d="M 73.5,16.5 C 72.8333,15.1667 72.8333,15.1667 73.5,16.5 Z"/></g>
<g><path style="opacity:0.004" fill="#fefffe" d="M 217.5,16.5 C 218.833,17.1667 218.833,17.1667 217.5,16.5 Z"/></g>
<g><path style="opacity:1" fill="#2383b8" d="M 26.5,8.5 C 26.1412,10.7659 26.8078,12.5993 28.5,14C 26.3316,15.9705 25.9983,18.1371 27.5,20.5C 26.8333,21.8333 25.8333,22.8333 24.5,23.5C 21.0381,22.5184 17.3714,22.185 13.5,22.5C 13.1667,22.5 12.8333,22.5 12.5,22.5C 13.2599,18.9186 13.7599,15.2519 14,11.5C 14.5,11 15,10.5 15.5,10C 19.2519,9.75992 22.9186,9.25992 26.5,8.5 Z"/></g>
<g><path style="opacity:0.004" fill="#fefffe" d="M 110.5,17.5 C 111.833,18.1667 111.833,18.1667 110.5,17.5 Z"/></g>
<g><path style="opacity:0.757" fill="#080808" d="M 125.5,17.5 C 129.587,18.001 133.587,18.001 137.5,17.5C 139.791,17.6221 141.791,18.4554 143.5,20C 142.54,23.73 142.207,27.5633 142.5,31.5C 141.5,31.5 140.5,31.5 139.5,31.5C 139.665,28.1501 139.498,24.8168 139,21.5C 137.989,20.6634 136.822,20.33 135.5,20.5C 135.5,24.1667 135.5,27.8333 135.5,31.5C 134.5,31.5 133.5,31.5 132.5,31.5C 132.665,28.4816 132.498,25.4816 132,22.5C 130.951,20.8934 129.451,20.2267 127.5,20.5C 127.5,24.1667 127.5,27.8333 127.5,31.5C 126.5,31.5 125.5,31.5 124.5,31.5C 124.226,26.737 124.559,22.0704 125.5,17.5 Z"/></g>
<g><path style="opacity:0.648" fill="#020202" d="M 159.5,17.5 C 160.5,17.5 161.5,17.5 162.5,17.5C 163.701,28.7044 165.534,29.0377 168,18.5C 169.183,17.269 170.349,17.269 171.5,18.5C 166.554,36.0102 162.554,35.6769 159.5,17.5 Z"/></g>
<g><path style="opacity:0.682" fill="#010101" d="M 174.5,17.5 C 176.5,17.5 178.5,17.5 180.5,17.5C 180.5,18.5 180.5,19.5 180.5,20.5C 178.833,20.5 177.167,20.5 175.5,20.5C 175.5,24.1667 175.5,27.8333 175.5,31.5C 174.5,31.5 173.5,31.5 172.5,31.5C 171.985,26.5203 172.652,21.8536 174.5,17.5 Z"/></g>
<g><path style="opacity:0.004" fill="#fefffe" d="M 90.5,18.5 C 91.8333,19.1667 91.8333,19.1667 90.5,18.5 Z"/></g>
<g><path style="opacity:0.757" fill="#050405" d="M 148.5,17.5 C 156.322,17.1659 159.156,20.8325 157,28.5C 153.333,32.5 149.667,32.5 146,28.5C 144.812,24.2586 145.645,20.5919 148.5,17.5 Z M 149.5,20.5 C 154.258,21.0217 155.592,23.5217 153.5,28C 151.888,28.7203 150.388,28.5536 149,27.5C 148.297,25.0709 148.463,22.7375 149.5,20.5 Z"/></g>
<g><path style="opacity:0.004" fill="#fefffe" d="M 195.5,18.5 C 196.833,19.1667 196.833,19.1667 195.5,18.5 Z"/></g>
<g><path style="opacity:0.786" fill="#060606" d="M 95.5,13.5 C 99.5839,13.0431 103.417,13.7098 107,15.5C 108.956,18.8278 108.456,21.8278 105.5,24.5C 106.635,26.7989 107.968,28.9656 109.5,31C 108.056,31.7805 106.723,31.6139 105.5,30.5C 104.345,27.0046 102.012,25.0046 98.5,24.5C 98.5,26.8333 98.5,29.1667 98.5,31.5C 97.5,31.5 96.5,31.5 95.5,31.5C 95.5,25.5 95.5,19.5 95.5,13.5 Z M 98.5,16.5 C 100.199,16.3398 101.866,16.5065 103.5,17C 104.833,18.3333 104.833,19.6667 103.5,21C 101.866,21.4935 100.199,21.6602 98.5,21.5C 98.5,19.8333 98.5,18.1667 98.5,16.5 Z"/></g>
<g><path style="opacity:0.757" fill="#060606" d="M 113.5,17.5 C 119.612,16.6098 122.612,19.2765 122.5,25.5C 119.428,25.1826 116.428,25.5159 113.5,26.5C 113.709,27.086 114.043,27.586 114.5,28C 116.5,28.3333 118.5,28.6667 120.5,29C 121.833,29.6667 121.833,30.3333 120.5,31C 114.613,32.8923 110.947,30.8923 109.5,25C 110.026,22.0374 111.359,19.5374 113.5,17.5 Z M 114.5,20.5 C 116.103,20.3118 117.437,20.8118 118.5,22C 116.833,22.6667 115.167,22.6667 113.5,22C 114.056,21.6174 114.389,21.1174 114.5,20.5 Z"/></g>
<g><path style="opacity:0.004" fill="#fefffe" d="M 191.5,20.5 C 192.833,21.1667 192.833,21.1667 191.5,20.5 Z"/></g>
<g><path style="opacity:0.004" fill="#fefffe" d="M 203.5,20.5 C 204.833,21.1667 204.833,21.1667 203.5,20.5 Z"/></g>
<g><path style="opacity:0.208" fill="#eeafcd" d="M 37.5,14.5 C 37.6263,17.595 39.293,19.4283 42.5,20C 44.0488,21.214 45.2155,22.714 46,24.5C 46.8119,28.6888 46.6453,32.6888 45.5,36.5C 47.3614,28.5606 44.6947,22.8939 37.5,19.5C 37.1667,19.5 36.8333,19.5 36.5,19.5C 36.2155,17.5853 36.5489,15.9187 37.5,14.5 Z"/></g>
<g><path style="opacity:0.004" fill="#fefffe" d="M 69.5,21.5 C 70.8333,22.1667 70.8333,22.1667 69.5,21.5 Z"/></g>
<g><path style="opacity:1" fill="#8e7dce" d="M 36.5,19.5 C 36.8333,19.5 37.1667,19.5 37.5,19.5C 37.5,20.1667 37.1667,20.5 36.5,20.5C 28.5847,20.0867 24.5847,23.7533 24.5,31.5C 24.5,32.1667 24.1667,32.5 23.5,32.5C 23.2641,29.3915 23.5975,26.3915 24.5,23.5C 25.8333,22.8333 26.8333,21.8333 27.5,20.5C 30.4299,19.701 33.4299,19.3677 36.5,19.5 Z"/></g>
<g><path style="opacity:1" fill="#3e9bcd" d="M 13.5,22.5 C 17.3714,22.185 21.0381,22.5184 24.5,23.5C 23.5975,26.3915 23.2641,29.3915 23.5,32.5C 23.5,33.5 23.5,34.5 23.5,35.5C 20.1792,34.2028 17.0125,32.5361 14,30.5C 13.5026,27.854 13.3359,25.1873 13.5,22.5 Z"/></g>
<g><path style="opacity:0.004" fill="#fefffe" d="M 197.5,23.5 C 198.833,24.1667 198.833,24.1667 197.5,23.5 Z"/></g>
<g><path style="opacity:0.004" fill="#fefffe" d="M 91.5,25.5 C 92.8333,26.1667 92.8333,26.1667 91.5,25.5 Z"/></g>
<g><path style="opacity:0.584" fill="#010101" d="M 89.5,27.5 C 91.9118,27.6941 92.9118,29.0274 92.5,31.5C 91.1667,31.5 89.8333,31.5 88.5,31.5C 88.4326,30.0413 88.7659,28.7079 89.5,27.5 Z"/></g>
<g><path style="opacity:0.004" fill="#fefffe" d="M 204.5,27.5 C 205.833,28.1667 205.833,28.1667 204.5,27.5 Z"/></g>
<g><path style="opacity:1" fill="#bd53bc" d="M 36.5,20.5 C 36.7892,24.1064 36.4558,27.6064 35.5,31C 31.8484,31.4986 28.1817,31.6653 24.5,31.5C 24.5847,23.7533 28.5847,20.0867 36.5,20.5 Z"/></g>
<g><path style="opacity:0.004" fill="#fefffe" d="M 130.5,28.5 C 131.833,29.1667 131.833,29.1667 130.5,28.5 Z"/></g>
<g><path style="opacity:0.004" fill="#fefffe" d="M 53.5,29.5 C 54.8333,30.1667 54.8333,30.1667 53.5,29.5 Z"/></g>
<g><path style="opacity:1" fill="#ea3d8b" d="M 37.5,19.5 C 44.6947,22.8939 47.3614,28.5606 45.5,36.5C 44.925,38.4113 43.925,40.078 42.5,41.5C 37.8333,41.5 33.1667,41.5 28.5,41.5C 26.8333,39.5 25.1667,37.5 23.5,35.5C 23.5,34.5 23.5,33.5 23.5,32.5C 24.1667,32.5 24.5,32.1667 24.5,31.5C 28.1817,31.6653 31.8484,31.4986 35.5,31C 36.4558,27.6064 36.7892,24.1064 36.5,20.5C 37.1667,20.5 37.5,20.1667 37.5,19.5 Z"/></g>
<g><path style="opacity:0.004" fill="#fefffe" d="M 98.5,32.5 C 99.8333,33.1667 99.8333,33.1667 98.5,32.5 Z"/></g>
<g><path style="opacity:0.004" fill="#fefffe" d="M 182.5,32.5 C 183.833,33.1667 183.833,33.1667 182.5,32.5 Z"/></g>
<g><path style="opacity:0.004" fill="#fefffe" d="M 90.5,33.5 C 91.8333,34.1667 91.8333,34.1667 90.5,33.5 Z"/></g>
<g><path style="opacity:0.004" fill="#fefffe" d="M 132.5,33.5 C 133.833,34.1667 133.833,34.1667 132.5,33.5 Z"/></g>
<g><path style="opacity:0.004" fill="#fdfffe" d="M 76.5,34.5 C 77.8333,35.1667 77.8333,35.1667 76.5,34.5 Z"/></g>
<g><path style="opacity:0.004" fill="#fefffe" d="M 140.5,35.5 C 141.833,36.1667 141.833,36.1667 140.5,35.5 Z"/></g>
<g><path style="opacity:0.004" fill="#fefffe" d="M 221.5,35.5 C 222.833,36.1667 222.833,36.1667 221.5,35.5 Z"/></g>
<g><path style="opacity:0.004" fill="#fefffe" d="M 153.5,36.5 C 154.833,37.1667 154.833,37.1667 153.5,36.5 Z"/></g>
<g><path style="opacity:0.004" fill="#fefffe" d="M 52.5,37.5 C 53.8333,38.1667 53.8333,38.1667 52.5,37.5 Z"/></g>
<g><path style="opacity:0.004" fill="#fefffe" d="M 100.5,37.5 C 101.833,38.1667 101.833,38.1667 100.5,37.5 Z"/></g>
<g><path style="opacity:0.004" fill="#fefffe" d="M 181.5,37.5 C 182.833,38.1667 182.833,38.1667 181.5,37.5 Z"/></g>
<g><path style="opacity:0.004" fill="#00fffe" d="M 92.5,38.5 C 93.8333,39.1667 93.8333,39.1667 92.5,38.5 Z"/></g>
<g><path style="opacity:0.004" fill="#fefffe" d="M 104.5,38.5 C 105.833,39.1667 105.833,39.1667 104.5,38.5 Z"/></g>
<g><path style="opacity:0.004" fill="#fdfffe" d="M 167.5,38.5 C 168.833,39.1667 168.833,39.1667 167.5,38.5 Z"/></g>
<g><path style="opacity:0.004" fill="#fefffe" d="M 18.5,39.5 C 19.8333,40.1667 19.8333,40.1667 18.5,39.5 Z"/></g>
<g><path style="opacity:0.004" fill="#fefffe" d="M 81.5,39.5 C 82.8333,40.1667 82.8333,40.1667 81.5,39.5 Z"/></g>
<g><path style="opacity:0.004" fill="#fefffe" d="M 126.5,39.5 C 127.833,40.1667 127.833,40.1667 126.5,39.5 Z"/></g>
<g><path style="opacity:0.004" fill="#fefffe" d="M 180.5,39.5 C 181.833,40.1667 181.833,40.1667 180.5,39.5 Z"/></g>
<g><path style="opacity:0.004" fill="#fefffe" d="M 216.5,39.5 C 217.833,40.1667 217.833,40.1667 216.5,39.5 Z"/></g>
<g><path style="opacity:0.004" fill="#fefffe" d="M 8.5,41.5 C 7.83333,40.1667 7.83333,40.1667 8.5,41.5 Z"/></g>
</svg>
